<mxfile host="app.diagrams.net" modified="2023-09-13T14:06:01.790Z" agent="Mozilla/5.0 (Windows NT 10.0; Win64; x64) AppleWebKit/537.36 (KHTML, like Gecko) Chrome/106.0.0.0 Safari/537.36" version="21.7.5" etag="Xd3hvko5mp2iJHqeUD9Y" type="github">
  <diagram name="第 1 页" id="d-mT_XahZrADfrek6Lkm">
    <mxGraphModel>
      <root>
        <mxCell id="0" />
        <mxCell id="1" parent="0" />
      </root>
    </mxGraphModel>
  </diagram>
</mxfile>
